# xmcd CD database file
#
# Track frame offsets:
#	150
#	50154
#	110789
#	144881
#	196264
#	202949
#	207494
#	235235
#	269397
#	282786
#	284400
#
# Disc length: 4155 seconds
#
# Revision: 0
# Processed by: cddbd v1.5.2PL0 Copyright (c) Steve Scherf et al.
# Submitted via: CDex 1.70beta2
#
DISCID=ae10390b
DTITLE=Pacho Davila - Canto Mestizo
DYEAR=2004
DGENRE=Jazz
TTITLE0=Canto Mestizo
TTITLE1=Fiesta Guapirena
TTITLE2=Gwallaje
TTITLE3=Calipso
TTITLE4=Botero Exposicion
TTITLE5=Compadre Sonny
TTITLE6=La Granja
TTITLE7=Fiesta Kogui
TTITLE8=Ilusion Wayu
TTITLE9=Jacumbia AM
TTITLE10=Episodio 2
EXTD=YEAR: 2004
EXTT0=
EXTT1=
EXTT2=
EXTT3=
EXTT4=
EXTT5=
EXTT6=
EXTT7=
EXTT8=
EXTT9=
EXTT10=
PLAYORDER=
